<svg xmlns="http://www.w3.org/2000/svg" xmlns:xlink="http://www.w3.org/1999/xlink" width="50px" height="50px" viewBox="0 0 100 100" preserveAspectRatio="xMinYMin meet" >
<g style="fill:rosybrown; stroke:black; vector-effect:non-scaling-stroke;stroke-width:1px;" id="e1_shape" transform="matrix(0.804688 0 0 0.804688 632.5 120.75)"/>
<g style="fill:silver; stroke:silver; vector-effect:non-scaling-stroke;stroke-width:1px;" id="e2_shape" transform="matrix(-1.57993 0 0 -1.57993 442.131 298.389)"/>
<g style="fill:silver; stroke:black; vector-effect:non-scaling-stroke;stroke-width:1px;" id="e4_shape" transform="matrix(0.851921 0 0 0.851921 269.145 129.368)">
<path d="M-190.69092-144.000006h-112c-4.4,0-8,3.6-8,8s3.6,8,8,8h112c4.4,0,8-3.6,8-8s-3.6-8-8-8Z"/>
<path d="M-190.69092-104.000006h-112c-4.4,0-8,3.6-8,8s3.6,8,8,8h112c4.4,0,8-3.6,8-8s-3.6-8-8-8Z"/>
<path d="M-190.69092-64.000006h-112c-4.4,0-8,3.6-8,8s3.6,8,8,8h112c4.4,0,8-3.6,8-8s-3.6-8-8-8Z"/></g></svg>